<?xml version="1.0" encoding="UTF-8"?>
<svg id="Capa_1" data-name="Capa 1" xmlns="http://www.w3.org/2000/svg" viewBox="0 0 1080 1080">
  <defs>
    <style>
      .cls-1 {
        fill: #e3fc74;
      }

      .cls-2 {
        fill: #262626;
      }
    </style>
  </defs>
  <path d="M804.82,889.54l-.84.84-.03-.03c.31-.28.59-.56.87-.81Z"/>
  <g>
    <path d="M275.12,190.48c-.84.81-1.68,1.63-2.5,2.47l2.47-2.5.03.03Z"/>
    <path class="cls-2" d="M917.58,263.83c0-55.93-45.47-101.4-101.4-101.4h-471.02c-27.11,0-51.81,10.71-70.03,28.06-.84.81-1.68,1.63-2.5,2.47l-81.5,81.47.03.03c-17.77,18.28-28.74,43.23-28.74,70.68v471.02c0,55.93,45.5,101.43,101.43,101.43h471.02c26.69,0,50.97-10.34,69.08-27.22.31-.28.59-.56.87-.81l3.45-3.45,80.55-80.43-.06-.06c17.83-18.28,28.82-43.26,28.82-70.76v-471.02ZM903.56,734.85c0,41.3-28.76,76-67.34,85.09-4.57,1.09-9.31,1.79-14.13,2.13-1.96.14-3.93.2-5.92.2h-471.02c-48.19,0-87.41-39.22-87.41-87.41v-471.02c0-1.99.06-3.95.2-5.92.34-4.82,1.04-9.56,2.13-14.13,9.08-38.58,43.79-67.34,85.09-67.34h471.02c48.19,0,87.39,39.19,87.39,87.39v471.02Z"/>
    <path class="cls-1" d="M903.56,263.83v471.02c0,41.3-28.76,76-67.34,85.09-4.57,1.09-9.31,1.79-14.13,2.13-1.96.14-3.93.2-5.92.2h-471.02c-48.19,0-87.41-39.22-87.41-87.41v-471.02c0-1.99.06-3.95.2-5.92.34-4.82,1.04-9.56,2.13-14.13,9.08-38.58,43.79-67.34,85.09-67.34h471.02c48.19,0,87.39,39.19,87.39,87.39Z"/>
  </g>
  <g>
    <path class="cls-2" d="M790.56,542.01c-.23-10.9,9.17-19.99,20.53-19.76,11.4-.23,21.03,8.86,20.8,19.76.23,10.9-9.4,20.03-20.8,19.8-11.36.23-20.76-8.93-20.53-19.8ZM799,530.15c-3.31,3.24-4.97,7.2-4.97,11.86s1.66,8.55,4.97,11.75c3.27,3.2,7.32,4.81,12.09,4.81s8.94-1.62,12.29-4.81c3.35-3.2,5.05-7.09,5.05-11.75s-1.66-8.63-5.01-11.86c-3.35-3.2-7.47-4.81-12.32-4.81s-8.82,1.62-12.09,4.81ZM803.78,551.64v-19.49h8.32c4.12,0,6.74,2.31,6.74,5.97,0,2.66-1.46,4.66-3.77,5.39l4.74,8.13h-3.81l-4.24-7.59h-4.7v7.59h-3.27ZM807.05,541.12h4.97c2.19,0,3.43-1.16,3.43-3s-1.23-3.04-3.43-3.04h-4.97v6.05Z"/>
    <g>
      <path class="cls-2" d="M343.42,475.12v-211.11h52.39l63.74,137.74,63.74-137.74h52.39v211.11h-51.15v-114.11l-47.88,101.67h-34.2l-47.88-101.67v114.11h-51.14Z"/>
      <path class="cls-2" d="M652.15,401.74c11.97,18.66,31.71,30.32,52.23,30.32,8.55,0,15.7-1.56,21.61-4.66,5.75-2.95,8.71-6.84,8.71-11.66,0-3.89-1.86-7.46-5.44-10.42-3.58-2.95-7.46-5.13-11.35-6.53-4.04-1.4-10.73-3.57-20.21-6.37-2.64-.78-4.82-1.4-6.22-1.87-6.53-2.02-11.82-3.73-16.01-5.13-4.2-1.4-9.17-3.11-14.61-5.44-11.19-4.51-17.26-8.55-24.87-15.39-10.88-9.48-16.01-22.07-16.64-40.73,0-12.44,3.73-23.63,11.19-33.42,7.46-9.8,16.94-17.1,28.6-22.08,11.51-4.97,23.79-7.46,36.84-7.46,34.67,0,62.34,15.08,83.02,45.08l-37.78,27.83c-13.06-18.65-28.14-27.98-45.24-27.98-14.77,0-25.03,7-25.03,17.1,0,3.89.93,7,3.89,9.48,2.95,2.64,4.82,4.35,10.42,6.37,5.44,2.02,7.93,2.8,15.55,5.13,3.73,1.24,6.84,2.33,9.17,3.11,9.02,2.95,16.48,5.6,22.38,7.77,5.91,2.33,12.13,4.97,18.5,7.93,6.37,3.11,11.5,6.22,15.39,9.33,12.13,9.48,20.83,23.01,20.05,41.97,0,21.14-10.42,38.56-26.43,48.66-16.17,10.11-36.07,15.55-56.74,15.55-19.59,0-37.47-4.2-53.48-12.75-16.17-8.39-28.14-20.36-35.91-35.75l38.4-27.98Z"/>
      <path class="cls-2" d="M394.57,733.04h-51.14v-211.11h43.53l106.34,128.72v-128.72h51.14v211.11h-44.31l-105.56-127.48v127.48Z"/>
      <path class="cls-2" d="M646.56,733.04h-50.99v-211.11h106.64c20.21,0,37.31,6.37,51.3,19.28,13.84,12.9,20.83,29.38,20.83,49.28,0,14.77-3.73,27.67-11.19,38.86-7.62,11.19-17.72,19.43-30.31,24.87l44.15,78.97h-55.19l-39.95-72.91h-35.29v72.76ZM646.56,565.46v51.3h44.62c18.81,0,30.78-10.88,30.78-26.27,0-14.46-11.97-25.03-30.78-25.03h-44.62Z"/>
    </g>
  </g>
</svg>